<svg version="1.1" id="Layer_1" xmlns="http://www.w3.org/2000/svg" xmlns:xlink="http://www.w3.org/1999/xlink" x="0px" y="0px"
	 width="100%" viewBox="0 0 2048 2048" enable-background="new 0 0 2048 2048" xml:space="preserve">
<path fill="#FFFFFF" opacity="1.000000" stroke="none" 
	d="
M1103.000000,2049.000000 
	C735.333313,2049.000000 368.166656,2049.000000 1.000000,2049.000000 
	C1.000000,1366.333374 1.000000,683.666687 1.000000,1.000000 
	C683.666687,1.000000 1366.333374,1.000000 2049.000000,1.000000 
	C2049.000000,683.666687 2049.000000,1366.333374 2049.000000,2049.000000 
	C1733.833374,2049.000000 1418.666626,2049.000000 1103.000000,2049.000000 
M424.755371,1073.743286 
	C414.629120,1062.083130 405.279877,1049.619751 394.223022,1038.921509 
	C367.036987,1012.617249 333.721832,1001.854248 296.222839,1003.058594 
	C293.369812,1003.150269 292.010223,1004.085999 291.779846,1007.066284 
	C291.023987,1016.842590 289.701935,1026.588257 289.281464,1036.375122 
	C287.845215,1069.803345 290.239990,1102.898560 299.069946,1135.322266 
	C313.931702,1189.894775 344.388184,1233.584961 391.430847,1265.061523 
	C436.367828,1295.129028 486.939911,1307.124268 540.334656,1308.709839 
	C563.361755,1309.393677 586.298828,1307.309082 608.807434,1302.591919 
	C662.484863,1291.343140 708.698547,1266.408081 745.751526,1225.510132 
	C756.415405,1213.739624 765.714661,1201.015503 771.067200,1185.759521 
	C777.460388,1167.537720 771.947998,1146.069458 757.741821,1134.933838 
	C737.214844,1118.843628 710.609192,1120.282349 691.900085,1138.493774 
	C683.666443,1146.508301 675.748657,1154.880859 667.143982,1162.475098 
	C624.691406,1199.942017 575.130249,1213.235596 519.695068,1203.809204 
	C484.540771,1197.831299 455.837860,1180.622070 435.874115,1150.327881 
	C425.312531,1134.301147 418.143860,1116.914307 415.022308,1097.490845 
	C421.881317,1095.635254 428.519379,1093.839600 436.220978,1091.756226 
	C432.212555,1085.484375 428.660461,1079.926636 424.755371,1073.743286 
M355.657104,993.743286 
	C364.620239,998.115295 374.065460,1001.719910 382.461792,1006.994202 
	C416.163361,1028.164062 439.547546,1058.656738 457.534912,1093.445557 
	C465.237549,1108.343018 470.979126,1124.244385 477.883850,1139.567017 
	C486.585815,1158.878174 506.509064,1166.121460 525.853943,1157.511230 
	C539.946411,1151.238892 547.306091,1139.241943 553.799683,1126.194458 
	C564.259949,1105.176758 574.377075,1083.946899 585.829163,1063.472412 
	C610.052429,1020.165222 639.297485,980.320496 672.291687,943.298889 
	C692.358337,920.782776 713.650818,899.434631 736.998291,880.246277 
	C767.815125,854.919067 799.670471,831.160278 836.373413,814.758057 
	C837.400879,814.298828 838.340454,813.642883 839.321045,813.078735 
	C831.884644,812.991699 824.745789,813.411743 817.711487,814.505066 
	C786.664307,819.330688 757.494995,829.973572 729.503906,843.921814 
	C688.429443,864.389648 651.328857,890.723083 616.738770,920.774536 
	C583.097961,950.001099 552.008118,981.687988 523.532654,1015.953674 
	C518.786865,1021.664551 514.060791,1027.391846 508.949707,1033.565674 
	C492.200073,1013.553894 474.066101,995.953003 451.031403,983.999817 
	C427.707855,971.896667 402.861359,967.089050 376.835327,967.125183 
	C349.829529,967.162781 308.579346,976.774780 303.598022,983.728333 
	C321.238098,984.701965 338.427338,987.339966 355.657104,993.743286 
M339.643280,881.155457 
	C321.791260,905.903992 309.979462,933.459290 300.570709,963.484863 
	C303.585052,962.466309 305.295013,961.896240 306.999908,961.311340 
	C344.055054,948.599915 381.726746,944.111633 420.383179,952.827942 
	C427.391113,954.408142 427.282166,954.383667 430.550049,947.531677 
	C438.168457,931.557739 448.255890,917.229919 461.842438,905.917664 
	C494.115967,879.046570 531.933899,873.198669 572.253052,878.596619 
	C588.748840,880.805054 604.123474,886.625488 618.213501,895.976440 
	C646.776062,872.469116 676.875427,851.578064 709.350403,833.923340 
	C696.096313,820.351624 665.974182,802.918945 643.894836,795.157959 
	C604.587891,781.341370 564.152039,777.852783 522.867554,780.847900 
	C489.257507,783.286255 457.263275,791.700623 427.143219,806.716614 
	C392.123108,824.175415 362.911102,848.670654 339.643280,881.155457 
M672.950806,1051.377197 
	C698.759155,1044.673584 724.146790,1036.786133 748.095520,1024.814819 
	C774.315125,1011.708374 783.131775,988.823547 780.341431,962.488892 
	C778.186096,942.147095 771.338501,923.338989 762.754028,905.041199 
	C760.328369,899.870789 757.252563,895.005371 754.130371,889.379150 
	C693.511597,939.322937 645.642761,998.537476 606.174377,1064.797363 
	C606.506409,1065.346558 606.838440,1065.895874 607.170471,1066.445190 
	C628.838013,1061.515259 650.505554,1056.585205 672.950806,1051.377197 
M952.499817,1102.282104 
	C963.282410,1102.282104 974.065002,1102.282104 984.986145,1102.282104 
	C984.986145,1095.737427 984.986145,1089.638794 984.986145,1083.079834 
	C959.152161,1083.079834 933.569824,1083.079834 907.935974,1083.079834 
	C907.935974,1070.884766 907.935974,1059.155396 907.935974,1047.058838 
	C930.599121,1047.058838 952.890320,1047.058838 975.279480,1047.058838 
	C975.279480,1040.765381 975.279480,1034.849365 975.279480,1028.396240 
	C952.644470,1028.396240 930.279724,1028.396240 907.766113,1028.396240 
	C907.766113,1016.434631 907.766113,1005.014709 907.766113,992.963013 
	C933.276306,992.963013 958.488525,992.963013 983.669189,992.963013 
	C983.669189,986.563782 983.669189,980.801758 983.669189,974.889526 
	C951.502991,974.889526 919.612183,974.889526 887.742615,974.889526 
	C887.742615,1017.491882 887.742615,1059.724121 887.742615,1102.279297 
	C909.218140,1102.279297 930.358948,1102.279297 952.499817,1102.282104 
M1060.471069,1073.099609 
	C1074.125732,1073.097778 1087.781616,1073.195923 1101.433960,1073.018799 
	C1104.592773,1072.977783 1106.060669,1073.944214 1107.200195,1076.940796 
	C1110.034424,1084.393555 1113.284302,1091.691528 1116.501831,1098.992310 
	C1117.034668,1100.201294 1118.212158,1101.980469 1119.151367,1102.018311 
	C1125.719360,1102.282593 1132.302979,1102.158325 1139.265137,1102.158325 
	C1138.352417,1099.945557 1137.756836,1098.404297 1137.088379,1096.895264 
	C1121.055420,1060.701416 1105.034302,1024.502441 1088.951416,988.330688 
	C1086.866089,983.640503 1085.577393,977.325439 1081.879395,974.979675 
	C1078.173218,972.628723 1071.895508,974.523010 1066.775757,974.142090 
	C1063.377930,973.889343 1061.869141,975.193481 1060.515259,978.223206 
	C1047.083984,1008.282715 1033.423340,1038.239746 1019.956482,1068.283325 
	C1015.016357,1079.304688 1010.419556,1090.479736 1005.435669,1102.123169 
	C1011.616760,1102.123169 1017.242249,1101.860352 1022.826660,1102.225464 
	C1025.992310,1102.432495 1027.223633,1101.096436 1028.252930,1098.512817 
	C1031.145508,1091.251465 1034.334229,1084.106323 1037.130005,1076.809448 
	C1038.168335,1074.099487 1039.401001,1072.873901 1042.498901,1073.031860 
	C1048.145752,1073.319580 1053.817993,1073.105103 1060.471069,1073.099609 
M1172.874756,985.377258 
	C1155.713257,1005.123901 1162.257202,1031.864502 1186.633667,1041.010254 
	C1193.007935,1043.401733 1199.661255,1045.042358 1206.158203,1047.115723 
	C1213.118286,1049.336792 1220.271362,1051.148315 1226.925903,1054.078979 
	C1234.203857,1057.284302 1237.124023,1063.560425 1236.026001,1070.727295 
	C1234.939209,1077.820068 1229.515381,1083.755127 1221.049805,1084.718994 
	C1213.562744,1085.571655 1205.738037,1085.446533 1198.298218,1084.266479 
	C1186.642700,1082.417725 1176.563721,1076.508057 1167.452759,1068.852295 
	C1163.874390,1074.114624 1160.535889,1079.024048 1157.018799,1084.196167 
	C1174.450562,1098.448364 1194.059937,1105.779541 1216.315918,1103.906250 
	C1224.227539,1103.240356 1232.443726,1100.875122 1239.569824,1097.358521 
	C1252.337036,1091.058105 1258.263062,1079.785889 1257.883667,1065.472290 
	C1257.507324,1051.280518 1250.137817,1041.578979 1237.533569,1036.022095 
	C1230.725464,1033.020508 1223.365723,1031.276978 1216.271851,1028.914795 
	C1209.028442,1026.502808 1201.601807,1024.494873 1194.632935,1021.447021 
	C1188.010132,1018.550537 1184.396240,1012.993835 1185.092773,1005.410706 
	C1185.688477,998.925964 1190.452271,993.978699 1198.143188,991.988892 
	C1207.674927,989.522644 1217.068237,990.752258 1226.084229,994.234497 
	C1232.841431,996.844421 1239.332886,1000.142822 1246.117065,1003.213562 
	C1248.760376,997.822998 1251.428223,992.382324 1254.180298,986.769653 
	C1236.598633,975.416809 1217.863647,970.606689 1197.323853,973.603516 
	C1188.215454,974.932556 1179.924438,978.071655 1172.874756,985.377258 
M1603.995728,1011.403564 
	C1599.975464,1002.447510 1595.964966,993.487122 1591.932739,984.536438 
	C1587.185791,973.999695 1587.170776,973.885864 1575.546753,974.563904 
	C1573.904175,974.659729 1571.573364,976.188660 1570.895996,977.666321 
	C1553.768677,1015.022644 1536.807617,1052.455078 1519.858643,1089.892944 
	C1518.049194,1093.889526 1516.494141,1098.001221 1514.558105,1102.697021 
	C1518.818237,1102.697021 1522.147827,1102.459229 1525.427124,1102.763306 
	C1528.777344,1103.073730 1530.513550,1101.936890 1531.770386,1098.738037 
	C1534.993774,1090.533691 1538.714355,1082.525513 1542.010010,1074.347900 
	C1543.020386,1071.840576 1544.226074,1070.792725 1547.065918,1070.813477 
	C1568.712402,1070.972168 1590.360474,1071.006470 1612.007324,1070.921143 
	C1614.817505,1070.910034 1616.080811,1071.826416 1617.058838,1074.424805 
	C1620.163696,1082.673340 1623.486328,1090.843628 1626.928589,1098.957886 
	C1627.544800,1100.410645 1629.037354,1102.389648 1630.285767,1102.514160 
	C1634.665527,1102.950806 1639.115356,1102.683594 1644.720703,1102.683594 
	C1630.961548,1071.854126 1617.627075,1041.976440 1603.995728,1011.403564 
M1346.010986,1095.423828 
	C1345.958008,1084.268311 1345.664062,1073.105835 1345.991333,1061.961426 
	C1346.096558,1058.373291 1347.118652,1054.401978 1348.950928,1051.342285 
	C1359.291260,1034.074707 1369.999146,1017.026978 1380.595459,999.912903 
	C1385.709473,991.653442 1390.854004,983.412842 1396.485107,974.359070 
	C1388.760010,974.359070 1381.977417,974.241211 1375.207153,974.477417 
	C1374.103271,974.515808 1372.724487,975.913330 1372.030029,977.029419 
	C1364.736572,988.751160 1357.523071,1000.523193 1350.356812,1012.323425 
	C1345.459351,1020.387573 1340.672119,1028.518555 1335.593872,1037.024658 
	C1334.357178,1035.028198 1333.377808,1033.497925 1332.447876,1031.938110 
	C1321.714355,1013.934448 1311.015991,995.909851 1300.206543,977.951965 
	C1299.368042,976.559021 1297.807983,974.698364 1296.507690,974.636230 
	C1289.600830,974.306152 1282.670044,974.481079 1275.114624,974.481079 
	C1276.203979,976.385254 1276.887207,977.655518 1277.639526,978.883484 
	C1291.541748,1001.572449 1305.206787,1024.412598 1319.504761,1046.849487 
	C1324.007202,1053.915161 1326.184814,1060.840088 1325.747803,1069.197266 
	C1325.177979,1080.094849 1325.608398,1091.044678 1325.608398,1101.756104 
	C1332.702881,1101.756104 1339.269409,1101.756104 1346.015015,1101.756104 
	C1346.015015,1099.701904 1346.015015,1098.051147 1346.010986,1095.423828 
M1723.500610,987.667603 
	C1732.255371,991.026794 1741.010010,994.385986 1750.154907,997.894836 
	C1751.511475,994.911987 1753.279297,991.025269 1755.012451,987.214478 
	C1737.095459,972.668701 1703.086548,968.772766 1684.305542,979.313477 
	C1672.738159,985.805725 1667.195435,995.964661 1667.397217,1008.951599 
	C1667.596436,1021.778809 1674.020142,1031.105347 1685.630859,1036.508057 
	C1690.432861,1038.742676 1695.578369,1040.269287 1700.628418,1041.933960 
	C1711.825562,1045.624878 1723.260132,1048.693970 1734.208252,1053.005981 
	C1741.076294,1055.710938 1744.230713,1062.027588 1744.169189,1069.549561 
	C1744.106567,1077.196533 1740.703369,1083.016113 1734.029785,1086.727295 
	C1725.489136,1091.476685 1716.213501,1091.942139 1706.816040,1090.635620 
	C1692.467285,1088.640503 1679.718262,1082.912964 1668.592529,1073.057983 
	C1666.197754,1077.196167 1663.995117,1081.002441 1661.602295,1085.137085 
	C1666.274658,1088.270020 1670.343506,1091.504639 1674.847656,1093.931396 
	C1695.131714,1104.859863 1716.332520,1108.430054 1738.311279,1099.773560 
	C1751.055176,1094.754272 1758.015869,1084.745483 1758.925049,1070.997681 
	C1759.877808,1056.593262 1753.495728,1046.035889 1740.520752,1040.118164 
	C1733.000244,1036.688110 1724.863159,1034.596802 1716.974976,1031.989380 
	C1709.090698,1029.383179 1700.908691,1027.483765 1693.337769,1024.175171 
	C1685.278320,1020.653198 1681.290771,1012.749878 1682.224487,1005.194824 
	C1683.313232,996.386047 1688.351318,989.673584 1697.405640,988.215820 
	C1705.650391,986.888367 1714.227905,987.627808 1723.500610,987.667603 
M1421.525879,988.132324 
	C1430.520874,988.142090 1439.525269,988.397644 1448.507080,988.057495 
	C1452.961060,987.888855 1454.088379,989.237488 1454.063721,993.648743 
	C1453.872559,1027.795044 1453.952881,1061.942871 1453.949463,1096.090210 
	C1453.949219,1098.006592 1453.949463,1099.922974 1453.949463,1101.799805 
	C1459.075317,1101.799805 1463.335205,1101.799805 1468.098389,1101.799805 
	C1468.098389,1099.527100 1468.097778,1097.570068 1468.098389,1095.613037 
	C1468.109985,1061.465698 1468.178101,1027.318115 1468.055542,993.171387 
	C1468.041626,989.303406 1469.011719,987.862244 1473.068970,988.047119 
	C1479.716919,988.349854 1486.390747,988.078613 1493.053589,988.066223 
	C1499.484863,988.054321 1505.916260,988.063721 1512.343018,988.063721 
	C1512.343018,983.332153 1512.343018,979.297668 1512.343018,975.401855 
	C1478.344971,975.401855 1444.801270,975.401855 1411.328857,975.401855 
	C1411.328857,979.764771 1411.328857,983.688660 1411.328857,988.127319 
	C1414.617920,988.127319 1417.578003,988.127319 1421.525879,988.132324 
z"/>
<path fill="#62BFE3" opacity="1.000000" stroke="none" 
	d="
M424.931885,1074.056152 
	C428.660461,1079.926636 432.212555,1085.484375 436.220978,1091.756226 
	C428.519379,1093.839600 421.881317,1095.635254 415.022308,1097.490845 
	C418.143860,1116.914307 425.312531,1134.301147 435.874115,1150.327881 
	C455.837860,1180.622070 484.540771,1197.831299 519.695068,1203.809204 
	C575.130249,1213.235596 624.691406,1199.942017 667.143982,1162.475098 
	C675.748657,1154.880859 683.666443,1146.508301 691.900085,1138.493774 
	C710.609192,1120.282349 737.214844,1118.843628 757.741821,1134.933838 
	C771.947998,1146.069458 777.460388,1167.537720 771.067200,1185.759521 
	C765.714661,1201.015503 756.415405,1213.739624 745.751526,1225.510132 
	C708.698547,1266.408081 662.484863,1291.343140 608.807434,1302.591919 
	C586.298828,1307.309082 563.361755,1309.393677 540.334656,1308.709839 
	C486.939911,1307.124268 436.367828,1295.129028 391.430847,1265.061523 
	C344.388184,1233.584961 313.931702,1189.894775 299.069946,1135.322266 
	C290.239990,1102.898560 287.845215,1069.803345 289.281464,1036.375122 
	C289.701935,1026.588257 291.023987,1016.842590 291.779846,1007.066284 
	C292.010223,1004.085999 293.369812,1003.150269 296.222839,1003.058594 
	C333.721832,1001.854248 367.036987,1012.617249 394.223022,1038.921509 
	C405.279877,1049.619751 414.629120,1062.083130 424.931885,1074.056152 
z"/>
<path fill="#64C0E2" opacity="1.000000" stroke="none" 
	d="
M355.303162,993.579712 
	C338.427338,987.339966 321.238098,984.701965 303.598022,983.728333 
	C308.579346,976.774780 349.829529,967.162781 376.835327,967.125183 
	C402.861359,967.089050 427.707855,971.896667 451.031403,983.999817 
	C474.066101,995.953003 492.200073,1013.553894 508.949707,1033.565674 
	C514.060791,1027.391846 518.786865,1021.664551 523.532654,1015.953674 
	C552.008118,981.687988 583.097961,950.001099 616.738770,920.774536 
	C651.328857,890.723083 688.429443,864.389648 729.503906,843.921814 
	C757.494995,829.973572 786.664307,819.330688 817.711487,814.505066 
	C824.745789,813.411743 831.884644,812.991699 839.321045,813.078735 
	C838.340454,813.642883 837.400879,814.298828 836.373413,814.758057 
	C799.670471,831.160278 767.815125,854.919067 736.998291,880.246277 
	C713.650818,899.434631 692.358337,920.782776 672.291687,943.298889 
	C639.297485,980.320496 610.052429,1020.165222 585.829163,1063.472412 
	C574.377075,1083.946899 564.259949,1105.176758 553.799683,1126.194458 
	C547.306091,1139.241943 539.946411,1151.238892 525.853943,1157.511230 
	C506.509064,1166.121460 486.585815,1158.878174 477.883850,1139.567017 
	C470.979126,1124.244385 465.237549,1108.343018 457.534912,1093.445557 
	C439.547546,1058.656738 416.163361,1028.164062 382.461792,1006.994202 
	C374.065460,1001.719910 364.620239,998.115295 355.303162,993.579712 
z"/>
<path fill="#62BFE3" opacity="1.000000" stroke="none" 
	d="
M339.857178,880.868713 
	C362.911102,848.670654 392.123108,824.175415 427.143219,806.716614 
	C457.263275,791.700623 489.257507,783.286255 522.867554,780.847900 
	C564.152039,777.852783 604.587891,781.341370 643.894836,795.157959 
	C665.974182,802.918945 696.096313,820.351624 709.350403,833.923340 
	C676.875427,851.578064 646.776062,872.469116 618.213501,895.976440 
	C604.123474,886.625488 588.748840,880.805054 572.253052,878.596619 
	C531.933899,873.198669 494.115967,879.046570 461.842438,905.917664 
	C448.255890,917.229919 438.168457,931.557739 430.550049,947.531677 
	C427.282166,954.383667 427.391113,954.408142 420.383179,952.827942 
	C381.726746,944.111633 344.055054,948.599915 306.999908,961.311340 
	C305.295013,961.896240 303.585052,962.466309 300.570709,963.484863 
	C309.979462,933.459290 321.791260,905.903992 339.857178,880.868713 
z"/>
<path fill="#64C0E2" opacity="1.000000" stroke="none" 
	d="
M672.561951,1051.516235 
	C650.505554,1056.585205 628.838013,1061.515259 607.170471,1066.445190 
	C606.838440,1065.895874 606.506409,1065.346558 606.174377,1064.797363 
	C645.642761,998.537476 693.511597,939.322937 754.130371,889.379150 
	C757.252563,895.005371 760.328369,899.870789 762.754028,905.041199 
	C771.338501,923.338989 778.186096,942.147095 780.341431,962.488892 
	C783.131775,988.823547 774.315125,1011.708374 748.095520,1024.814819 
	C724.146790,1036.786133 698.759155,1044.673584 672.561951,1051.516235 
z"/>
<path fill="#3C3B3B" opacity="1.000000" stroke="none" 
	d="
M951.999756,1102.280762 
	C930.358948,1102.279297 909.218140,1102.279297 887.742615,1102.279297 
	C887.742615,1059.724121 887.742615,1017.491882 887.742615,974.889526 
	C919.612183,974.889526 951.502991,974.889526 983.669189,974.889526 
	C983.669189,980.801758 983.669189,986.563782 983.669189,992.963013 
	C958.488525,992.963013 933.276306,992.963013 907.766113,992.963013 
	C907.766113,1005.014709 907.766113,1016.434631 907.766113,1028.396240 
	C930.279724,1028.396240 952.644470,1028.396240 975.279480,1028.396240 
	C975.279480,1034.849365 975.279480,1040.765381 975.279480,1047.058838 
	C952.890320,1047.058838 930.599121,1047.058838 907.935974,1047.058838 
	C907.935974,1059.155396 907.935974,1070.884766 907.935974,1083.079834 
	C933.569824,1083.079834 959.152161,1083.079834 984.986145,1083.079834 
	C984.986145,1089.638794 984.986145,1095.737427 984.986145,1102.282104 
	C974.065002,1102.282104 963.282410,1102.282104 951.999756,1102.280762 
z"/>
<path fill="#3D3C3B" opacity="1.000000" stroke="none" 
	d="
M1059.975342,1073.099854 
	C1053.817993,1073.105103 1048.145752,1073.319580 1042.498901,1073.031860 
	C1039.401001,1072.873901 1038.168335,1074.099487 1037.130005,1076.809448 
	C1034.334229,1084.106323 1031.145508,1091.251465 1028.252930,1098.512817 
	C1027.223633,1101.096436 1025.992310,1102.432495 1022.826660,1102.225464 
	C1017.242249,1101.860352 1011.616760,1102.123169 1005.435669,1102.123169 
	C1010.419556,1090.479736 1015.016357,1079.304688 1019.956482,1068.283325 
	C1033.423340,1038.239746 1047.083984,1008.282715 1060.515259,978.223206 
	C1061.869141,975.193481 1063.377930,973.889343 1066.775757,974.142090 
	C1071.895508,974.523010 1078.173218,972.628723 1081.879395,974.979675 
	C1085.577393,977.325439 1086.866089,983.640503 1088.951416,988.330688 
	C1105.034302,1024.502441 1121.055420,1060.701416 1137.088379,1096.895264 
	C1137.756836,1098.404297 1138.352417,1099.945557 1139.265137,1102.158325 
	C1132.302979,1102.158325 1125.719360,1102.282593 1119.151367,1102.018311 
	C1118.212158,1101.980469 1117.034668,1100.201294 1116.501831,1098.992310 
	C1113.284302,1091.691528 1110.034424,1084.393555 1107.200195,1076.940796 
	C1106.060669,1073.944214 1104.592773,1072.977783 1101.433960,1073.018799 
	C1087.781616,1073.195923 1074.125732,1073.097778 1059.975342,1073.099854 
M1074.585083,1001.977478 
	C1073.845947,1000.410950 1073.106934,998.844360 1071.987549,996.471802 
	C1063.299438,1016.396606 1054.975708,1035.485596 1046.538208,1054.835693 
	C1063.802734,1054.835693 1080.323853,1054.835693 1097.255249,1054.835693 
	C1089.669556,1037.146851 1082.277954,1019.910828 1074.585083,1001.977478 
z"/>
<path fill="#3C3B3A" opacity="1.000000" stroke="none" 
	d="
M1173.125366,985.126343 
	C1179.924438,978.071655 1188.215454,974.932556 1197.323853,973.603516 
	C1217.863647,970.606689 1236.598633,975.416809 1254.180298,986.769653 
	C1251.428223,992.382324 1248.760376,997.822998 1246.117065,1003.213562 
	C1239.332886,1000.142822 1232.841431,996.844421 1226.084229,994.234497 
	C1217.068237,990.752258 1207.674927,989.522644 1198.143188,991.988892 
	C1190.452271,993.978699 1185.688477,998.925964 1185.092773,1005.410706 
	C1184.396240,1012.993835 1188.010132,1018.550537 1194.632935,1021.447021 
	C1201.601807,1024.494873 1209.028442,1026.502808 1216.271851,1028.914795 
	C1223.365723,1031.276978 1230.725464,1033.020508 1237.533569,1036.022095 
	C1250.137817,1041.578979 1257.507324,1051.280518 1257.883667,1065.472290 
	C1258.263062,1079.785889 1252.337036,1091.058105 1239.569824,1097.358521 
	C1232.443726,1100.875122 1224.227539,1103.240356 1216.315918,1103.906250 
	C1194.059937,1105.779541 1174.450562,1098.448364 1157.018799,1084.196167 
	C1160.535889,1079.024048 1163.874390,1074.114624 1167.452759,1068.852295 
	C1176.563721,1076.508057 1186.642700,1082.417725 1198.298218,1084.266479 
	C1205.738037,1085.446533 1213.562744,1085.571655 1221.049805,1084.718994 
	C1229.515381,1083.755127 1234.939209,1077.820068 1236.026001,1070.727295 
	C1237.124023,1063.560425 1234.203857,1057.284302 1226.925903,1054.078979 
	C1220.271362,1051.148315 1213.118286,1049.336792 1206.158203,1047.115723 
	C1199.661255,1045.042358 1193.007935,1043.401733 1186.633667,1041.010254 
	C1162.257202,1031.864502 1155.713257,1005.123901 1173.125366,985.126343 
z"/>
<path fill="#919192" opacity="1.000000" stroke="none" 
	d="
M1604.144165,1011.751099 
	C1617.627075,1041.976440 1630.961548,1071.854126 1644.720703,1102.683594 
	C1639.115356,1102.683594 1634.665527,1102.950806 1630.285767,1102.514160 
	C1629.037354,1102.389648 1627.544800,1100.410645 1626.928589,1098.957886 
	C1623.486328,1090.843628 1620.163696,1082.673340 1617.058838,1074.424805 
	C1616.080811,1071.826416 1614.817505,1070.910034 1612.007324,1070.921143 
	C1590.360474,1071.006470 1568.712402,1070.972168 1547.065918,1070.813477 
	C1544.226074,1070.792725 1543.020386,1071.840576 1542.010010,1074.347900 
	C1538.714355,1082.525513 1534.993774,1090.533691 1531.770386,1098.738037 
	C1530.513550,1101.936890 1528.777344,1103.073730 1525.427124,1102.763306 
	C1522.147827,1102.459229 1518.818237,1102.697021 1514.558105,1102.697021 
	C1516.494141,1098.001221 1518.049194,1093.889526 1519.858643,1089.892944 
	C1536.807617,1052.455078 1553.768677,1015.022644 1570.895996,977.666321 
	C1571.573364,976.188660 1573.904175,974.659729 1575.546753,974.563904 
	C1587.170776,973.885864 1587.185791,973.999695 1591.932739,984.536438 
	C1595.964966,993.487122 1599.975464,1002.447510 1604.144165,1011.751099 
M1578.133179,990.849426 
	C1568.398071,1013.172729 1558.662964,1035.495972 1548.700439,1058.340820 
	C1569.378540,1058.340820 1589.441528,1058.340820 1610.157959,1058.340820 
	C1600.015991,1035.730835 1590.167969,1013.757324 1580.270020,991.806458 
	C1579.990723,991.187073 1579.175903,990.809082 1578.133179,990.849426 
z"/>
<path fill="#3B3A39" opacity="1.000000" stroke="none" 
	d="
M1346.012939,1095.912109 
	C1346.015015,1098.051147 1346.015015,1099.701904 1346.015015,1101.756104 
	C1339.269409,1101.756104 1332.702881,1101.756104 1325.608398,1101.756104 
	C1325.608398,1091.044678 1325.177979,1080.094849 1325.747803,1069.197266 
	C1326.184814,1060.840088 1324.007202,1053.915161 1319.504761,1046.849487 
	C1305.206787,1024.412598 1291.541748,1001.572449 1277.639526,978.883484 
	C1276.887207,977.655518 1276.203979,976.385254 1275.114624,974.481079 
	C1282.670044,974.481079 1289.600830,974.306152 1296.507690,974.636230 
	C1297.807983,974.698364 1299.368042,976.559021 1300.206543,977.951965 
	C1311.015991,995.909851 1321.714355,1013.934448 1332.447876,1031.938110 
	C1333.377808,1033.497925 1334.357178,1035.028198 1335.593872,1037.024658 
	C1340.672119,1028.518555 1345.459351,1020.387573 1350.356812,1012.323425 
	C1357.523071,1000.523193 1364.736572,988.751160 1372.030029,977.029419 
	C1372.724487,975.913330 1374.103271,974.515808 1375.207153,974.477417 
	C1381.977417,974.241211 1388.760010,974.359070 1396.485107,974.359070 
	C1390.854004,983.412842 1385.709473,991.653442 1380.595459,999.912903 
	C1369.999146,1017.026978 1359.291260,1034.074707 1348.950928,1051.342285 
	C1347.118652,1054.401978 1346.096558,1058.373291 1345.991333,1061.961426 
	C1345.664062,1073.105835 1345.958008,1084.268311 1346.012939,1095.912109 
z"/>
<path fill="#919192" opacity="1.000000" stroke="none" 
	d="
M1723.079712,987.561890 
	C1714.227905,987.627808 1705.650391,986.888367 1697.405640,988.215820 
	C1688.351318,989.673584 1683.313232,996.386047 1682.224487,1005.194824 
	C1681.290771,1012.749878 1685.278320,1020.653198 1693.337769,1024.175171 
	C1700.908691,1027.483765 1709.090698,1029.383179 1716.974976,1031.989380 
	C1724.863159,1034.596802 1733.000244,1036.688110 1740.520752,1040.118164 
	C1753.495728,1046.035889 1759.877808,1056.593262 1758.925049,1070.997681 
	C1758.015869,1084.745483 1751.055176,1094.754272 1738.311279,1099.773560 
	C1716.332520,1108.430054 1695.131714,1104.859863 1674.847656,1093.931396 
	C1670.343506,1091.504639 1666.274658,1088.270020 1661.602295,1085.137085 
	C1663.995117,1081.002441 1666.197754,1077.196167 1668.592529,1073.057983 
	C1679.718262,1082.912964 1692.467285,1088.640503 1706.816040,1090.635620 
	C1716.213501,1091.942139 1725.489136,1091.476685 1734.029785,1086.727295 
	C1740.703369,1083.016113 1744.106567,1077.196533 1744.169189,1069.549561 
	C1744.230713,1062.027588 1741.076294,1055.710938 1734.208252,1053.005981 
	C1723.260132,1048.693970 1711.825562,1045.624878 1700.628418,1041.933960 
	C1695.578369,1040.269287 1690.432861,1038.742676 1685.630859,1036.508057 
	C1674.020142,1031.105347 1667.596436,1021.778809 1667.397217,1008.951599 
	C1667.195435,995.964661 1672.738159,985.805725 1684.305542,979.313477 
	C1703.086548,968.772766 1737.095459,972.668701 1755.012451,987.214478 
	C1753.279297,991.025269 1751.511475,994.911987 1750.154907,997.894836 
	C1741.010010,994.385986 1732.255371,991.026794 1723.079712,987.561890 
z"/>
<path fill="#919192" opacity="1.000000" stroke="none" 
	d="
M1421.031982,988.129822 
	C1417.578003,988.127319 1414.617920,988.127319 1411.328857,988.127319 
	C1411.328857,983.688660 1411.328857,979.764771 1411.328857,975.401855 
	C1444.801270,975.401855 1478.344971,975.401855 1512.343018,975.401855 
	C1512.343018,979.297668 1512.343018,983.332153 1512.343018,988.063721 
	C1505.916260,988.063721 1499.484863,988.054321 1493.053589,988.066223 
	C1486.390747,988.078613 1479.716919,988.349854 1473.068970,988.047119 
	C1469.011719,987.862244 1468.041626,989.303406 1468.055542,993.171387 
	C1468.178101,1027.318115 1468.109985,1061.465698 1468.098389,1095.613037 
	C1468.097778,1097.570068 1468.098389,1099.527100 1468.098389,1101.799805 
	C1463.335205,1101.799805 1459.075317,1101.799805 1453.949463,1101.799805 
	C1453.949463,1099.922974 1453.949219,1098.006592 1453.949463,1096.090210 
	C1453.952881,1061.942871 1453.872559,1027.795044 1454.063721,993.648743 
	C1454.088379,989.237488 1452.961060,987.888855 1448.507080,988.057495 
	C1439.525269,988.397644 1430.520874,988.142090 1421.031982,988.129822 
z"/>
<path fill="#FDFDFC" opacity="1.000000" stroke="none" 
	d="
M1074.735718,1002.326172 
	C1082.277954,1019.910828 1089.669556,1037.146851 1097.255249,1054.835693 
	C1080.323853,1054.835693 1063.802734,1054.835693 1046.538208,1054.835693 
	C1054.975708,1035.485596 1063.299438,1016.396606 1071.987549,996.471802 
	C1073.106934,998.844360 1073.845947,1000.410950 1074.735718,1002.326172 
z"/>
<path fill="#FDFDFC" opacity="1.000000" stroke="none" 
	d="
M1578.372070,990.583984 
	C1579.175903,990.809082 1579.990723,991.187073 1580.270020,991.806458 
	C1590.167969,1013.757324 1600.015991,1035.730835 1610.157959,1058.340820 
	C1589.441528,1058.340820 1569.378540,1058.340820 1548.700439,1058.340820 
	C1558.662964,1035.495972 1568.398071,1013.172729 1578.372070,990.583984 
z"/>
</svg>